# xmcd
#
# Track frame offsets:
#	150
#	14550
#	27775
#	48500
#	63075
#	85825
#	114475
#	134725
#	152425
#	185100
#	204675
#	227350
#
# Disc length: 3269 seconds
#
# Revision: 0
# Processed by: cddbd v1.5.1PL0 Copyright (c) Steve Scherf et al.
# Submitted via: dBpowerAMP V4.0
#
DISCID=9c0cc30c
DTITLE=mustang sally  - mustang sally live II
DYEAR=1900
DGENRE=Country
TTITLE0=g.r.i.t.s
TTITLE1=pour me 
TTITLE2=cowboy take me away
TTITLE3=stand by your man 
TTITLE4=crazy
TTITLE5=orange blossom special 
TTITLE6=blue moon of kentucky
TTITLE7=living in the past
TTITLE8=shake your money maker
TTITLE9=mustang sally
TTITLE10=long train runnin
TTITLE11=devil went down to georgia
EXTD=
EXTT0=
EXTT1=
EXTT2=
EXTT3=
EXTT4=
EXTT5=
EXTT6=
EXTT7=
EXTT8=
EXTT9=
EXTT10=
EXTT11=
PLAYORDER=
